<?xml version="1.0" encoding="utf-8"?>
<!-- Generator: Adobe Illustrator 17.0.0, SVG Export Plug-In . SVG Version: 6.00 Build 0)  -->
<!DOCTYPE svg PUBLIC "-//W3C//DTD SVG 1.1//EN" "http://www.w3.org/Graphics/SVG/1.1/DTD/svg11.dtd">
<svg version="1.1" id="Layer_1" xmlns="http://www.w3.org/2000/svg" xmlns:xlink="http://www.w3.org/1999/xlink" x="0px" y="0px"
	 width="500px" height="200px" viewBox="0 0 500 200" enable-background="new 0 0 500 200" xml:space="preserve">
<g>
	<path d="M338.911,133.643c1.894,2.748,7.241,10.755,9.405,13.401c14.061,17.198,26.356,25.407,37.559,25.099
		c5.975-0.128,10.8-2.204,14.338-6.171c2.773-3.108,4.316-6.939,5.13-10.735l1.792,0.052l0.29-10.06l2.297,0.007l0.124-41.335
		h-0.002l0.03-10.722l-12.661-29.333l-2.802-0.008l0.048-16.205L382.535,29.85l-6.62,4.439l10.565,15.758l-0.041,13.767l-3.256-0.01
		l-0.084,28.191l-12.845,11.788l-0.032,10.966l7.947,11.22l3.398,19.183l10.881,0.032v0.001l2.857,0.008l-0.282,9.746l1.183,0.034
		c-0.619,2.054-1.511,3.772-2.657,5.057c-1.847,2.071-4.421,3.114-7.894,3.188c-8.167,0.225-18.405-7.118-30.43-21.825
		c-1.932-2.363-3.703-4.931-5.578-7.651 M386.916,138.791l-2.596-14.653l-3.981-9.333l2.693,0.008l9.507,0.029l-0.072,23.966
		L386.916,138.791z"/>
	<path d="M28.345,43.138c-2.7-0.002-4.798-2.104-4.796-4.804c0.002-2.699,2.104-4.798,4.803-4.796l63.749,0.046
		c2.699,0.002,4.799,2.104,4.797,4.804s-2.104,4.798-4.804,4.796l-26.699-0.019l-0.063,87.447c-0.002,2.85-2.254,5.098-5.104,5.096
		c-2.851-0.002-5.098-2.254-5.096-5.104l0.063-87.447L28.345,43.138z"/>
	<path d="M104.517,80.993c-1.501,1.649-2.552,2.098-3.902,2.097c-2.399-0.002-4.348-1.952-4.346-4.353c0-1.05,0.301-1.8,0.751-2.55
		c4.205-6.597,12.309-11.841,24.908-11.831c17.399,0.013,26.992,10.219,26.98,25.519l-0.029,41.248
		c-0.002,2.55-2.104,4.648-4.654,4.646s-4.647-2.104-4.646-4.653l0.004-5.399c-3.756,7.047-12.457,10.791-21.457,10.784
		c-15.899-0.012-25.944-7.669-25.935-21.468c0.01-13.199,10.065-21.143,26.265-21.131l21.149,0.016l0.003-4.05
		c0.008-10.199-6.737-16.504-17.687-16.512C113.972,73.35,109.17,75.746,104.517,80.993z M139.595,108.617l0.005-6.3l-21.149-0.016
		c-9.749-0.007-16.502,4.038-16.509,12.738c-0.005,7.8,5.391,12.753,17.09,12.762C129.532,127.808,139.586,121.367,139.595,108.617z
		"/>
	<path d="M224.057,90.979l-0.028,40.049c-0.002,2.699-2.104,4.798-4.804,4.796s-4.798-2.104-4.796-4.803l0.027-38.099
		c0.009-11.85-3.436-19.952-17.984-19.963c-14.85-0.011-19.956,8.985-19.965,20.984l-0.026,37.049
		c-0.002,2.699-2.104,4.799-4.804,4.797s-4.798-2.104-4.796-4.804l0.044-60.897c0.002-2.7,2.104-4.798,4.804-4.796
		c2.699,0.002,4.798,2.103,4.796,4.803l-0.004,4.8c2.854-5.697,10.207-10.492,19.957-10.485
		C219.577,64.427,224.067,78.23,224.057,90.979z"/>
	<path d="M287.326,133.624l-26.524-34.068l-9.154,7.343l-0.018,24.149c-0.002,2.699-2.104,4.799-4.804,4.797
		c-2.7-0.002-4.798-2.104-4.796-4.804l0.071-98.396c0.002-2.699,2.104-4.798,4.804-4.796c2.699,0.002,4.798,2.104,4.796,4.803
		L251.655,95.5l35.42-28.923c1.2-1.049,2.4-1.197,3.301-1.197c2.699,0.002,4.798,2.104,4.796,4.804
		c-0.001,1.199-0.452,2.698-1.953,3.897l-24.613,19.632l26.673,34.367c0.899,1.051,1.049,2.101,1.049,3.001
		c-0.002,2.699-2.104,4.798-4.804,4.796C289.874,135.876,288.525,135.125,287.326,133.624z"/>
	<path d="M318.122,70.199l-0.028,39.148c-0.007,9.749,3.136,18.151,18.285,18.163c15.149,0.011,18.307-8.388,18.313-18.137
		l0.028-39.148c0.002-2.7,2.253-4.798,4.953-4.796c2.55,0.002,4.648,2.103,4.646,4.803l-0.028,39.148
		c-0.011,14.249-4.67,27.296-27.919,27.279c-23.099-0.018-27.89-13.07-27.879-27.319l0.028-39.148
		c0.002-2.7,2.104-4.799,4.804-4.797C315.875,65.397,318.124,67.499,318.122,70.199z"/>
	<path d="M447.822,64.586c23.999,0.018,28.636,19.071,28.628,29.271c-0.003,4.35-0.007,9.6-6.007,9.595l-43.799-0.032
		c-0.011,14.85,8.532,24.456,22.632,24.466c8.699,0.007,13.803-3.289,18.004-6.437c0.9-0.6,1.501-0.898,2.701-0.897
		c2.399,0.001,4.348,1.952,4.346,4.353c-0.001,1.649-0.752,2.549-1.651,3.448c-2.252,2.248-10.056,8.393-23.405,8.383
		c-19.949-0.015-32.391-10.974-32.373-36.172C416.915,77.463,428.323,64.572,447.822,64.586z M447.816,73.286
		c-13.05-0.01-20.255,8.385-21.165,21.733L467,95.048C467.007,84.249,463.266,73.298,447.816,73.286z"/>
</g>
</svg>
